<svg xmlns="http://www.w3.org/2000/svg" xmlns:xlink="http://www.w3.org/1999/xlink" width="100" height="100" viewBox="0 0 100 100">
  <defs>
    <clipPath id="clip-path">
      <rect id="Rectangle_1" data-name="Rectangle 1" width="100" height="100" transform="translate(609 634.769)" fill="#ff9800"/>
    </clipPath>
  </defs>
  <g id="Logo" transform="translate(-609 -634.769)" clip-path="url(#clip-path)">
    <path id="Path_1" data-name="Path 1" d="M696.99,687.861h3.521a8.253,8.253,0,1,0,0-16.506H643.547l-12.964-29.177a6.361,6.361,0,0,0-11.757,4.857l9.02,24.32H617.262a8.253,8.253,0,1,0,0,16.506h3.516a39.39,39.39,0,0,0,14.311,21.745,18.129,18.129,0,0,0-2.95,7.341H621a7.674,7.674,0,0,0-7.671,7.658v3.718a1.947,1.947,0,0,0,1.949,1.947h87.208a1.947,1.947,0,0,0,1.949-1.947V724.6a7.669,7.669,0,0,0-7.665-7.658H685.633a18.139,18.139,0,0,0-2.953-7.339A39.365,39.365,0,0,0,696.99,687.861Zm7.885-8.253a4.368,4.368,0,0,1-4.364,4.359h-2.765a38.917,38.917,0,0,0,.394-5.491v-3.229h2.37A4.368,4.368,0,0,1,704.875,679.608Zm-82.394-33.927a2.547,2.547,0,0,1,1.3-3.29,2.5,2.5,0,0,1,3.243,1.365l12.262,27.6H632ZM612.9,679.608a4.368,4.368,0,0,1,4.364-4.361h2.366v3.229a38.926,38.926,0,0,0,.394,5.491h-2.76A4.368,4.368,0,0,1,612.9,679.608Zm11.911,8.253h25.325a1.947,1.947,0,1,0,0-3.893H623.961a34.77,34.77,0,0,1-.436-5.491v-3.229h70.718v3.229a34.967,34.967,0,0,1-.436,5.491H667.632a1.947,1.947,0,1,0,0,3.893h25.326a35.485,35.485,0,0,1-12.673,18.675q-.642-.711-1.35-1.4a1.95,1.95,0,0,0-2.72,0,25.561,25.561,0,0,0-4.86,6.354,25.572,25.572,0,0,0-4.86-6.354,1.95,1.95,0,0,0-2.72,0,25.623,25.623,0,0,0-4.863,6.356,25.55,25.55,0,0,0-4.863-6.356,1.948,1.948,0,0,0-2.718,0,25.52,25.52,0,0,0-4.889,6.409,25.528,25.528,0,0,0-4.894-6.41,1.95,1.95,0,0,0-2.718,0q-.71.69-1.349,1.4A35.519,35.519,0,0,1,624.809,687.861Zm44.42,29.086h-8.189a17,17,0,0,1,4.1-7.6A17,17,0,0,1,669.229,716.947Zm-12.439,0H648.6a16.989,16.989,0,0,1,4.094-7.6A17.029,17.029,0,0,1,656.789,716.947Zm-16.6-7.6a16.978,16.978,0,0,1,4.1,7.6H636.1A17.013,17.013,0,0,1,640.192,709.349ZM700.539,724.6v1.771H617.228V724.6A3.773,3.773,0,0,1,621,720.84h75.769A3.771,3.771,0,0,1,700.539,724.6Zm-27.056-7.658a17,17,0,0,1,4.092-7.6,17,17,0,0,1,4.1,7.6Z" transform="translate(0 1.964)" fill="#ff9800"/>
    <path id="Path_2" data-name="Path 2" d="M635.941,661.068a1.948,1.948,0,0,0,3.193-2.233,5.875,5.875,0,0,1,0-6.107,9.754,9.754,0,0,0,0-10.573,1.948,1.948,0,1,0-3.193,2.233,5.891,5.891,0,0,1,0,6.11A9.742,9.742,0,0,0,635.941,661.068Z" transform="translate(15.464 3.799)" fill="#ff9800"/>
    <path id="Path_3" data-name="Path 3" d="M644.834,656.224a1.948,1.948,0,1,0,3.193-2.233,5.876,5.876,0,0,1,0-6.1,9.755,9.755,0,0,0,0-10.573,1.948,1.948,0,0,0-3.193,2.233,5.885,5.885,0,0,1,0,6.11A9.739,9.739,0,0,0,644.834,656.224Z" transform="translate(20.882 0.857)" fill="#ff9800"/>
    <path id="Path_4" data-name="Path 4" d="M653.731,661.068a1.948,1.948,0,0,0,3.193-2.233,5.878,5.878,0,0,1,0-6.107,9.754,9.754,0,0,0,0-10.573,1.948,1.948,0,0,0-3.193,2.233,5.888,5.888,0,0,1,0,6.11A9.742,9.742,0,0,0,653.731,661.068Z" transform="translate(26.302 3.799)" fill="#ff9800"/>
    <path id="Path_5" data-name="Path 5" d="M640.736,670.606h.011a1.954,1.954,0,1,0-.011,0Z" transform="translate(18.147 19.219)" fill="#ff9800"/>
  </g>
</svg>
